Coordinates
version=1
nRows=13
nColumns=30
inDegrees=yes

Units are S.I. units (second, meters, Newtons, ...)
Angles are in degrees.

endheader
time	floatyaw	floatroll	floatpitch	floatx	floaty	floatz	pro_sup_l	deviation_l	flexion_l	cmc_flexion_l	cmc_abduction_l	mp_flexion_l	ip_flexion_l	2mcp_flexion_l	2mcp_abduction_l	2pm_flexion_l	2md_flexion_l	3mcp_flexion_l	3mcp_abduction_l	3pm_flexion_l	3md_flexion_l	4mcp_flexion_l	4mcp_abduction_l	4pm_flexion_l	4md_flexion_l	5mcp_flexion_l	5mcp_abduction_l	5pm_flexion_l	5md_flexion_l
-0.995000	-0.679314	-3.115271	87.889519	-0.009080	-0.228741	0.003619	86.998468	0.036010	-4.995095	26.419397	1.329229	-19.011508	-32.855276	16.759875	5.594570	33.661338	20.665329	4.170522	3.735142	38.291033	21.531763	-7.796345	-2.906572	57.261879	28.880818	-24.003812	-7.413075	66.846149	38.944879
-0.985000	-0.679314	-3.115271	87.889519	-0.009097	-0.228783	0.003672	86.972273	0.012158	-5.009406	26.429240	1.386664	-19.031968	-32.921892	16.762611	5.609073	33.661398	20.673226	4.165018	3.740963	38.285490	21.565183	-7.801432	-2.904222	57.225412	28.932401	-23.986759	-7.434758	66.739063	39.016599
-0.975000	-0.679314	-3.115271	87.889519	-0.009127	-0.228818	0.003734	86.958681	-0.010054	-5.023809	26.433678	1.423154	-19.046838	-32.963878	16.779312	5.615195	33.621983	20.673802	4.166839	3.743719	38.261595	21.585070	-7.792079	-2.905816	57.164623	28.971854	-23.968979	-7.450896	66.627945	39.058819
-0.965000	-0.679314	-3.115271	87.889519	-0.009164	-0.228840	0.003789	86.965687	-0.024178	-5.037734	26.445228	1.422230	-19.056207	-32.984529	16.811845	5.611846	33.544742	20.664658	4.178148	3.744541	38.223812	21.588032	-7.764406	-2.910580	57.087863	28.988708	-23.953157	-7.465387	66.556725	39.058890
-0.955000	-0.679314	-3.115271	87.889519	-0.009200	-0.228844	0.003823	86.993010	-0.027016	-5.048393	26.471970	1.379251	-19.060534	-32.992369	16.850045	5.600218	33.448938	20.650176	4.192259	3.746747	38.186379	21.576649	-7.723536	-2.918279	57.010097	28.976654	-23.949070	-7.483018	66.557220	39.013242
-0.945000	-0.679314	-3.115271	87.889519	-0.009227	-0.228831	0.003832	87.030761	-0.020346	-5.050908	26.510735	1.304655	-19.059739	-32.994081	16.874043	5.583209	33.365270	20.640460	4.195902	3.753686	38.166491	21.557906	-7.684933	-2.929210	56.948640	28.937463	-23.971342	-7.506054	66.633303	38.929458
-0.935000	-0.679314	-3.115271	87.889519	-0.009240	-0.228807	0.003822	87.063228	-0.010007	-5.040872	26.548721	1.220372	-19.053659	-32.992324	16.864782	5.564529	33.322293	20.645480	4.177395	3.766453	38.174222	21.539637	-7.667846	-2.943295	56.915567	28.881857	-24.031979	-7.532767	66.758242	38.826100
-0.925000	-0.679314	-3.115271	87.889519	-0.009243	-0.228781	0.003804	87.076320	-0.002889	-5.017543	26.571883	1.149932	-19.043243	-32.987592	16.815988	5.547714	33.332345	20.667759	4.135341	3.782882	38.205171	21.525931	-7.684709	-2.958986	56.911336	28.824892	-24.132686	-7.558676	66.886893	38.726809
-0.915000	-0.679314	-3.115271	87.889519	-0.009241	-0.228763	0.003790	87.064325	-0.003763	-4.985452	26.573715	1.108090	-19.031327	-32.980947	16.739798	5.535313	33.384754	20.698738	4.082228	3.798507	38.240338	21.513855	-7.733084	-2.973066	56.923698	28.777971	-24.261943	-7.579235	66.975541	38.650007
-0.905000	-0.679314	-3.115271	87.889519	-0.009246	-0.228760	0.003789	87.032104	-0.013682	-4.953083	26.558071	1.095927	-19.022003	-32.974450	16.661719	5.528361	33.450870	20.721879	4.039835	3.808898	38.254392	21.493867	-7.795706	-2.981898	56.933500	28.742295	-24.398647	-7.591660	66.998927	38.599445
-0.895000	-0.679314	-3.115271	87.889519	-0.009263	-0.228775	0.003804	86.992102	-0.030354	-4.929179	26.534779	1.102907	-19.018682	-32.968860	16.607411	5.526265	33.498681	20.721064	4.028330	3.811870	38.228635	21.454484	-7.849013	-2.983599	56.924604	28.708012	-24.519659	-7.594659	66.956918	38.561410
-0.885000	-0.679314	-3.115271	87.889519	-0.009296	-0.228806	0.003836	86.958525	-0.049718	-4.919037	26.512656	1.113601	-19.022238	-32.961920	16.589967	5.527407	33.508376	20.689240	4.055987	3.808268	38.161075	21.389320	-7.874373	-2.979645	56.891707	28.660482	-24.606389	-7.586990	66.869293	38.512063
-0.875000	-0.679314	-3.115271	87.889519	-0.009340	-0.228847	0.003880	86.941490	-0.067620	-4.923144	26.495601	1.115910	-19.030836	-32.950762	16.606353	5.530382	33.479415	20.632412	4.116520	3.801055	38.066880	21.302958	-7.864708	-2.974552	56.840969	28.591248	-24.647356	-7.566738	66.762966	38.433084
